<?xml version="1.0" encoding="UTF-8"?>
<svg id="_레이어_3" data-name="레이어 3" xmlns="http://www.w3.org/2000/svg" viewBox="0 0 160 160">
  <path d="M59.89,107.81l.3-7.05c.09-2.08.85-4.07,2.16-5.67L128.75,14.04c.94-1.19,2.15-2.21,3.54-2.98,1.39-.77,2.9-1.25,4.48-1.42,1.58-.17,3.16-.03,4.69.43,1.52.45,2.92,1.19,4.16,2.2,1.23,1.01,2.23,2.23,2.98,3.64.75,1.41,1.2,2.92,1.34,4.51.14,1.59-.03,3.16-.51,4.68-.48,1.51-1.24,2.9-2.27,4.12l-66.24,80.88c-1.37,1.68-3.27,2.84-5.39,3.3l-6.37,1.47-.85.17c-4.48.89-8.61-2.65-8.41-7.21ZM69.11,102.93l-.04.83c-.04,1.03.91,1.81,1.91,1.57l.82-.2c1.25-.31,2.37-1.01,3.19-2.01L140.24,23.45c.3-.36.49-.7.61-1.07.12-.38.16-.76.12-1.15-.04-.39-.15-.76-.33-1.1s-.43-.65-.73-.89c-.3-.25-.65-.43-1.02-.54-.38-.11-.76-.15-1.15-.11-.39.04-.76.16-1.1.35-.34.19-.64.44-.88.75l-65.31,79.73c-.82,1-1.29,2.23-1.34,3.52Z"/>
  <path d="M123.95,151.81H19.94c-5.53,0-10.01-4.48-10.01-10.01V18.86c0-5.54,4.49-10.04,10.04-10.04h80.9c2.21,0,4,1.79,4,4h0c0,2.21-1.79,4-4,4H21.93c-2.21,0-4,1.79-4,4v118.99c0,2.21,1.79,4,4,4h100.08c2.21,0,4-1.79,4-4v-56.06c0-2.21,1.79-4,4-4h0c2.21,0,4,1.79,4,4v58.01c0,5.55-4.5,10.05-10.05,10.05Z"/>
</svg>